# xmcd
#
# Track frame offsets: 
#        150
#        20597
#        41745
#        58212
#        74952
#        92997
#        109890
#        125700
#        141062
#        159880
#        173925
#        193282
#        211231
#        236138
#
# Disc length: 3251 seconds
#
# Revision: 1
# Processed by: cddbd v1.5.2PL0 Copyright (c) Steve Scherf et al.
# Submitted via: ExactAudioCopyFreeDBPlugin 1.0
#
DISCID=de0cb10e
DTITLE=Dierks Bentley - Modern Day Drifter 
DYEAR=2005
DGENRE=Country
TTITLE0=Lot of Leavin' Left To Do
TTITLE1=Come A Little Closer
TTITLE2=Cab Of My Truck
TTITLE3=Settle For A Slowdown
TTITLE4=Domestic, Light and Cold
TTITLE5=Good Things Happen
TTITLE6=Down On Easy Street
TTITLE7=So So Long
TTITLE8=Moden Day Drifter
TTITLE9=Good Man Like Me (with the Del McCoury Band)
TTITLE10=Gonna Get There Someday
TTITLE11=Domestic, Light and Cold (duet with Cody Canada)
TTITLE12=She Won't Choose Me
TTITLE13=Data
EXTD=YEAR: 2005
EXTT0=
EXTT1=
EXTT2=
EXTT3=
EXTT4=
EXTT5=
EXTT6=
EXTT7=
EXTT8=
EXTT9=
EXTT10=
EXTT11=
EXTT12=
EXTT13=
PLAYORDER=
